M48
; DRILL file {KiCad 8.0.7} date 2025-02-19T05:02:15+0545
; FORMAT={-:-/ absolute / metric / decimal}
; #@! TF.CreationDate,2025-02-19T05:02:15+05:45
; #@! TF.GenerationSoftware,Kicad,Pcbnew,8.0.7
; #@! TF.FileFunction,Plated,1,2,PTH
FMAT,2
METRIC
; #@! TA.AperFunction,Plated,PTH,ComponentDrill
T1C0.200
%
G90
G05
T1
X45.763Y-127.5
X45.763Y-132.58
X45.763Y-137.66
X45.763Y-142.74
X49.195Y-26.0
X54.275Y-26.0
X55.438Y-48.898
X55.438Y-53.977
X55.438Y-59.057
X55.438Y-64.138
X56.195Y-84.84
X56.195Y-89.92
X56.195Y-95.0
X56.195Y-100.08
X59.355Y-26.0
X64.435Y-26.0
X72.695Y-26.5
X77.775Y-26.5
X78.263Y-135.24
X81.695Y-48.34
X81.695Y-53.42
X81.695Y-58.5
X81.695Y-63.58
X81.695Y-83.92
X81.695Y-89.0
X81.695Y-94.08
X81.695Y-99.16
X82.855Y-26.5
X83.343Y-135.24
X87.935Y-26.5
X88.423Y-135.24
X93.503Y-135.24
X96.195Y-26.5
X101.275Y-26.5
X105.695Y-47.42
X105.695Y-52.5
X105.695Y-57.58
X105.695Y-62.66
X105.938Y-83.897
X105.938Y-88.977
X105.938Y-94.057
X105.938Y-99.137
X106.355Y-26.5
X111.435Y-26.5
X118.535Y-136.5
X121.035Y-26.5
X123.615Y-136.5
X126.115Y-26.5
X128.695Y-136.5
X131.195Y-26.5
X133.775Y-136.5
X134.59Y-47.67
X134.59Y-52.75
X134.59Y-57.83
X134.59Y-62.91
X135.195Y-84.0
X135.195Y-89.08
X135.195Y-94.16
X135.195Y-99.24
X136.275Y-26.5
X140.35Y-61.25
X140.36Y-56.16
X141.29Y-50.99
X141.74Y-63.85
X143.53Y-153.36
X143.53Y-155.9
X143.53Y-158.44
X143.53Y-160.98
X145.895Y-40.796
X145.895Y-43.336
X145.895Y-45.876
X145.895Y-48.416
X145.895Y-50.956
X145.895Y-53.496
X145.895Y-56.036
X145.895Y-58.576
X145.895Y-61.116
X145.895Y-63.656
X145.895Y-67.72
X145.895Y-70.26
X145.895Y-72.8
X145.895Y-75.34
X145.895Y-95.66
X145.895Y-98.2
X145.895Y-100.74
X145.895Y-103.28
X145.895Y-105.82
X145.895Y-108.36
X145.895Y-112.17
X145.895Y-115.98
X145.895Y-118.52
X147.26Y-127.34
X147.68Y-153.36
X147.68Y-155.9
X147.68Y-158.44
X147.68Y-160.98
X148.1Y-124.08
X148.435Y-115.98
X150.53Y-50.9
X150.975Y-115.98
X153.715Y-161.0
X156.255Y-161.0
X158.795Y-161.0
X161.335Y-161.0
X163.875Y-161.0
X166.215Y-85.627
X166.215Y-88.167
X166.415Y-161.0
X167.25Y-126.33
X168.755Y-85.627
X168.755Y-88.167
X168.955Y-161.0
X171.02Y-129.68
X171.295Y-85.627
X171.295Y-88.167
X171.295Y-115.98
X171.295Y-118.52
X171.495Y-161.0
X173.835Y-115.98
X173.835Y-118.52
X174.035Y-161.0
X176.575Y-161.0
X178.15Y-125.8
X179.115Y-161.0
X181.455Y-115.98
X181.455Y-118.52
X181.655Y-161.0
X183.34Y-110.7
X183.995Y-115.98
X183.995Y-118.52
X184.195Y-161.0
X186.42Y-108.29
X186.535Y-115.98
X186.535Y-118.52
X186.735Y-161.0
X186.89Y-126.51
X189.075Y-115.98
X189.075Y-118.52
X189.275Y-161.0
X191.815Y-161.0
X194.155Y-49.94
X194.155Y-52.48
X194.155Y-55.02
X194.155Y-57.56
X194.155Y-60.1
X194.155Y-62.64
X194.155Y-65.18
X194.155Y-67.72
M30
